<?xml version="1.0" standalone="no"?>
<!DOCTYPE svg PUBLIC "-//W3C//DTD SVG 20010904//EN"
 "http://www.w3.org/TR/2001/REC-SVG-20010904/DTD/svg10.dtd">
<svg version="1.0" xmlns="http://www.w3.org/2000/svg"
 width="1024.000000pt" height="1024.000000pt" viewBox="0 0 1024.000000 1024.000000"
 preserveAspectRatio="xMidYMid meet">
<metadata>
Created by potrace 1.16, written by Peter Selinger 2001-2019
</metadata>
<g transform="translate(0.000000,1024.000000) scale(0.100000,-0.100000)"
fill="#4A90E2" stroke="none">
<path d="M4995 8580 c-71 -28 -148 -99 -182 -168 -24 -50 -28 -68 -28 -147 0
-75 4 -97 23 -133 31 -59 97 -123 155 -151 l47 -23 0 -208 0 -208 -377 -5
c-334 -4 -388 -7 -463 -25 -207 -49 -352 -122 -525 -263 -171 -138 -292 -301
-373 -500 -7 -19 -20 -28 -45 -33 -48 -9 -144 -73 -195 -131 -23 -26 -57 -78
-75 -114 l-32 -65 -3 -218 c-4 -240 3 -286 59 -384 50 -87 159 -179 245 -204
39 -12 41 -14 52 -69 29 -138 126 -287 276 -420 54 -47 251 -184 279 -194 6
-2 -8 -21 -32 -42 -90 -82 -179 -237 -216 -375 -10 -39 -19 -122 -22 -210 -8
-229 26 -401 147 -730 29 -79 73 -192 97 -250 55 -130 94 -241 173 -485 136
-424 233 -595 377 -666 67 -33 169 -33 235 -1 141 70 214 213 323 637 66 257
72 276 108 336 40 67 74 86 127 70 66 -20 98 -85 155 -316 100 -408 165 -578
256 -666 128 -125 299 -113 432 30 91 99 170 274 281 626 51 161 108 321 130
364 24 46 147 372 187 495 70 216 84 299 84 496 0 188 -8 235 -61 368 -40 98
-85 170 -157 248 l-65 70 51 29 c267 148 463 366 517 576 6 24 13 51 16 60 3
10 20 20 41 24 126 23 247 154 288 310 21 83 21 417 0 500 -22 83 -61 151
-126 216 -54 54 -91 74 -180 93 -21 4 -31 19 -55 77 -74 185 -256 395 -465
537 -65 44 -219 120 -289 142 -153 49 -187 52 -587 57 l-383 5 0 214 c0 166 3
214 13 214 22 0 91 41 128 77 63 60 84 115 84 218 0 75 -4 98 -25 140 -31 63
-100 133 -165 165 -68 34 -188 39 -260 10z m162 -195 c12 -3 36 -22 52 -41 82
-93 -5 -217 -130 -184 -59 16 -101 78 -91 137 4 27 48 72 87 89 29 13 35 13
82 -1z m687 -1045 c171 -13 272 -37 401 -99 281 -135 503 -400 562 -671 15
-74 18 -132 18 -435 -1 -414 -10 -481 -91 -644 -77 -156 -220 -284 -464 -415
l-85 -45 -65 21 c-57 19 -88 22 -245 23 -197 0 -207 -2 -486 -85 -242 -73
-299 -72 -559 6 -190 57 -266 74 -373 84 -109 11 -261 -3 -345 -31 l-63 -21
-92 52 c-153 88 -238 149 -328 239 -70 70 -94 102 -127 171 -61 127 -81 222
-93 457 -12 228 -1 495 26 628 41 201 186 409 389 559 183 136 335 188 596
206 165 11 1270 11 1424 0z m1257 -938 c23 -45 24 -54 22 -234 -1 -179 -2
-189 -28 -247 -15 -33 -37 -69 -49 -80 l-22 -21 0 340 1 339 26 -25 c14 -13
37 -46 50 -72z m-3886 -246 l0 -325 -23 22 c-13 12 -36 45 -50 72 -26 48 -27
58 -30 226 -3 151 -1 182 13 210 19 37 77 118 85 119 3 0 5 -146 5 -324z
m1319 -1280 c41 -8 151 -37 243 -65 305 -91 393 -91 680 -2 199 61 299 81 412
81 158 0 256 -31 376 -120 107 -79 169 -164 217 -297 29 -82 36 -292 14 -430
-19 -121 -97 -363 -196 -603 -88 -215 -140 -358 -221 -605 -57 -175 -84 -246
-142 -364 -49 -99 -138 -157 -196 -127 -81 43 -108 108 -215 527 -82 321 -119
406 -213 488 -133 118 -304 84 -412 -83 -54 -83 -92 -189 -152 -426 -85 -334
-119 -428 -171 -478 -62 -57 -140 -40 -202 45 -19 26 -55 96 -80 156 -47 109
-63 155 -156 442 -29 88 -87 246 -130 350 -185 450 -241 656 -243 895 -1 198
47 325 173 450 94 94 189 143 335 174 48 9 209 5 279 -8z"/>
<path d="M4302 6822 c-21 -6 1087 -5 1433 1 83 1 -201 3 -630 4 -429 0 -790
-2 -803 -5z"/>
<path d="M4346 6427 c-22 -12 -53 -39 -70 -60 -29 -37 -31 -43 -31 -127 0 -82
2 -91 30 -132 39 -56 84 -78 158 -78 123 0 207 85 207 207 -1 156 -166 263
-294 190z"/>
<path d="M5724 6432 c-144 -68 -164 -289 -33 -374 144 -93 313 5 314 182 0 77
-23 129 -77 173 -48 39 -142 48 -204 19z"/>
<path d="M4734 5766 c-41 -41 -44 -78 -9 -129 l24 -37 -197 -3 -197 -2 211 -3
c201 -2 214 -3 265 -27 90 -41 166 -56 284 -56 119 -1 239 24 302 61 31 18 55
20 241 22 l207 3 -194 2 -194 3 21 23 c36 39 33 98 -8 139 -26 25 -37 30 -64
25 -18 -3 -49 -16 -70 -30 -72 -49 -226 -69 -351 -46 -66 12 -105 30 -148 65
-41 35 -82 31 -123 -10z"/>
</g>
</svg>